# xmcd
#
# Track frame offsets: 
#        150
#        28556
#        44840
#        71642
#        87327
#        109261
#        125219
#        148397
#        190308
#        221966
#        259711
#        286125
#
# Disc length: 4554 seconds
#
# Revision: 0
# Processed by: cddbd v1.4PL0 Copyright (c) Steve Scherf et al.
# Submitted via: ExactAudioCopy v0.95a3
#
DISCID=ca11c80c
DTITLE=Roy Buchanon - After Hours
DYEAR=1900
DGENRE=Blues
TTITLE0=After Hours
TTITLE1=Sweet Dreams
TTITLE2=The Messias Will Come Again
TTITLE3=TributeTo Elmore James
TTITLE4=Please Don't Turn Me Away
TTITLE5=Country Preacher
TTITLE6=Wayfaring Pilgrim
TTITLE7=Down By The River
TTITLE8=Soul Dressing
TTITLE9=Hey Joe
TTITLE10=Turn To The Stone
TTITLE11=Dual Soliloquy
EXTD=
EXTT0=
EXTT1=
EXTT2=
EXTT3=
EXTT4=
EXTT5=
EXTT6=
EXTT7=
EXTT8=
EXTT9=
EXTT10=
EXTT11=
PLAYORDER=
